<?xml version="1.0" encoding="UTF-8"?>
<svg width="44px" height="44px" viewBox="0 0 44 44" version="1.1" xmlns="http://www.w3.org/2000/svg" xmlns:xlink="http://www.w3.org/1999/xlink">
    <g stroke="none" stroke-width="1" fill="none" fill-rule="evenodd">
        <circle fill="#F0F1FF" cx="22" cy="22" r="22"></circle>
        <path d="M22,14 C24.209,14 26,15.791 26,18 L26,18 L26,22 C26,24.209 24.209,26 22,26 C19.791,26 18,24.209 18,22 L18,22 L18,18 C18,15.791 19.791,14 22,14 Z M30,20 C30.552,20 31,20.448 31,21 L31,21 L31,22 C31,27.1 27.322,31.232 22.5,31.938 L22.5,31.938 L22.5,33 C22.5,33.552 22.052,34 21.5,34 C20.948,34 20.5,33.552 20.5,33 L20.5,33 L20.5,31.938 C15.678,31.232 12,27.1 12,22 L12,22 L12,21 C12,20.448 12.448,20 13,20 C13.552,20 14,20.448 14,21 L14,21 L14,22 C14,26.1 17.29,29.4 21.5,29.4 C25.71,29.4 29,26.1 29,22 L29,22 L29,21 C29,20.448 29.448,20 30,20 Z" fill="#434AF9" fill-rule="nonzero"></path>
    </g>
</svg>
